name pl06_filtered_grf.mot
datacolumns 37
datarows 11
range 0.543000 0.548000
endheader
time	1_ground_force_vx	1_ground_force_vy	1_ground_force_vz	1_ground_force_px	1_ground_force_py	1_ground_force_pz	1_ground_torque_x	1_ground_torque_y	1_ground_torque_z	2_ground_force_vx	2_ground_force_vy	2_ground_force_vz	2_ground_force_px	2_ground_force_py	2_ground_force_pz	2_ground_torque_x	2_ground_torque_y	2_ground_torque_z	3_ground_force_vx	3_ground_force_vy	3_ground_force_vz	3_ground_force_px	3_ground_force_py	3_ground_force_pz	3_ground_torque_x	3_ground_torque_y	3_ground_torque_z	4_ground_force_vx	4_ground_force_vy	4_ground_force_vz	4_ground_force_px	4_ground_force_py	4_ground_force_pz	4_ground_torque_x	4_ground_torque_y	4_ground_torque_z
            0.543000	           -0.000000	            0.000000	            0.000000	            0.146963	            0.000000	            0.232437	            0.000000	            0.000000	           -0.000000	            0.000000	            0.000000	            0.000000	           -0.138296	            0.000000	            0.256471	            0.000000	           -0.000000	            0.000000	           22.065861	            0.960060	            0.623538	            0.375821	            1.311308	            1.914031	           -0.100682	           -0.004381	           -0.002845	          -19.641061	           -0.577772	            2.816738	           -0.265319	            1.310016	            1.924809	            0.027023	            0.000795	           -0.003875
            0.543500	           -0.000000	            0.000000	            0.000000	            0.146963	            0.000000	            0.232437	            0.000000	            0.000000	           -0.000000	            0.000000	            0.000000	            0.000000	           -0.138296	            0.000000	            0.256471	            0.000000	           -0.000000	            0.000000	           22.103812	            0.986710	            0.635304	            0.375828	            1.311311	            1.914036	           -0.100885	           -0.004503	           -0.002900	          -19.649552	           -0.563739	            2.829548	           -0.265316	            1.310015	            1.924815	            0.027247	            0.000782	           -0.003924
            0.544000	           -0.000000	            0.000000	            0.000000	            0.146963	            0.000000	            0.232437	            0.000000	            0.000000	           -0.000000	            0.000000	            0.000000	            0.000000	           -0.138296	            0.000000	            0.256471	            0.000000	           -0.000000	            0.000000	           22.142159	            1.013191	            0.647810	            0.375835	            1.311314	            1.914042	           -0.101085	           -0.004625	           -0.002957	          -19.657358	           -0.550127	            2.839514	           -0.265313	            1.310013	            1.924820	            0.027459	            0.000768	           -0.003967
            0.544500	           -0.000000	            0.000000	            0.000000	            0.146963	            0.000000	            0.232437	            0.000000	            0.000000	           -0.000000	            0.000000	            0.000000	            0.000000	           -0.138296	            0.000000	            0.256471	            0.000000	           -0.000000	            0.000000	           22.180687	            1.039302	            0.661147	            0.375842	            1.311317	            1.914048	           -0.101283	           -0.004746	           -0.003019	          -19.664353	           -0.537056	            2.846538	           -0.265310	            1.310012	            1.924826	            0.027658	            0.000755	           -0.004004
            0.545000	           -0.000000	            0.000000	            0.000000	            0.146963	            0.000000	            0.232437	            0.000000	            0.000000	           -0.000000	            0.000000	            0.000000	            0.000000	           -0.138296	            0.000000	            0.256471	            0.000000	           -0.000000	            0.000000	           22.219186	            1.064839	            0.675396	            0.375849	            1.311320	            1.914054	           -0.101479	           -0.004863	           -0.003085	          -19.670418	           -0.524643	            2.850543	           -0.265307	            1.310010	            1.924832	            0.027843	            0.000743	           -0.004035
            0.545500	           -0.000000	            0.000000	            0.000000	            0.146963	            0.000000	            0.232437	            0.000000	            0.000000	           -0.000000	            0.000000	            0.000000	            0.000000	           -0.138296	            0.000000	            0.256471	            0.000000	           -0.000000	            0.000000	           22.257458	            1.089607	            0.690449	            0.375855	            1.311324	            1.914057	           -0.101672	           -0.004977	           -0.003154	          -19.675416	           -0.512977	            2.851644	           -0.265304	            1.310009	            1.924838	            0.028011	            0.000730	           -0.004060
            0.546000	           -0.000000	            0.000000	            0.000000	            0.146963	            0.000000	            0.232437	            0.000000	            0.000000	           -0.000000	           -0.000000	            0.000000	            0.000000	           -0.138296	            0.000000	            0.256471	            0.000000	           -0.000000	            0.000000	           22.295302	            1.113405	            0.706533	            0.375862	            1.311329	            1.914061	           -0.101862	           -0.005087	           -0.003228	          -19.679268	           -0.502194	            2.849644	           -0.265302	            1.310008	            1.924843	            0.028164	            0.000719	           -0.004078
            0.546500	           -0.000000	            0.000000	            0.000000	            0.146963	            0.000000	            0.232437	            0.000000	            0.000000	           -0.000000	           -0.000000	            0.000000	            0.000000	           -0.138296	            0.000000	            0.256471	            0.000000	           -0.000000	            0.000000	           22.332535	            1.136044	            0.723690	            0.375869	            1.311333	            1.914064	           -0.102047	           -0.005191	           -0.003307	          -19.681880	           -0.492397	            2.844540	           -0.265299	            1.310006	            1.924849	            0.028299	            0.000708	           -0.004090
            0.547000	           -0.000000	            0.000000	            0.000000	            0.146963	            0.000000	            0.232437	            0.000000	            0.000000	           -0.000000	           -0.000000	            0.000000	            0.000000	           -0.138296	            0.000000	            0.256471	            0.000000	           -0.000000	            0.000000	           22.368986	            1.157344	            0.741940	            0.375875	            1.311337	            1.914068	           -0.102227	           -0.005289	           -0.003391	          -19.683174	           -0.483686	            2.836353	           -0.265296	            1.310005	            1.924855	            0.028417	            0.000698	           -0.004095
            0.547500	           -0.000000	            0.000000	            0.000000	            0.146963	            0.000000	            0.232437	            0.000000	            0.000000	           -0.000000	           -0.000000	            0.000000	            0.000000	           -0.138296	            0.000000	            0.256471	            0.000000	           -0.000000	            0.000000	           22.404498	            1.177137	            0.761289	            0.375882	            1.311341	            1.914071	           -0.102400	           -0.005380	           -0.003479	          -19.683085	           -0.476147	            2.825129	           -0.265293	            1.310004	            1.924861	            0.028519	            0.000690	           -0.004093
            0.548000	           -0.000000	            0.000000	            0.000000	            0.146963	            0.000000	            0.232437	            0.000000	            0.000000	           -0.000000	           -0.000000	            0.000000	            0.000000	           -0.138296	            0.000000	            0.256471	            0.000000	           -0.000000	            0.000000	           22.438931	            1.195269	            0.781627	            0.375888	            1.311345	            1.914072	           -0.102567	           -0.005464	           -0.003573	          -19.681555	           -0.469841	            2.811017	           -0.265290	            1.310003	            1.924866	            0.028603	            0.000683	           -0.004085
